<?xml version="1.0" ?><svg viewBox="0 0 64 64" xmlns="http://www.w3.org/2000/svg"><defs><style>.cls-1{fill:#efc89d;}.cls-2{fill:#dd5891;}.cls-3{fill:#748a95;}.cls-4{fill:#ebb87f;}.cls-5{fill:#f0f4f7;}</style></defs><g data-name="Devil Queen" id="Devil_Queen"><path class="cls-1" d="M37.17,40.05v2.57l7.73,4.52c2.72,1.58,5,3.85,5.57,6.94A1.61,1.61,0,0,1,48.89,56H44.47L32,52.72,19.53,56H15.11a1.61,1.61,0,0,1-1.58-1.92c.61-3.09,2.85-5.36,5.57-6.94l7.73-4.52V40.05Z" id="path123162-6-20-5-9"/><path class="cls-2" d="M44.47,56A6.57,6.57,0,0,0,34,50.75a2.89,2.89,0,0,1-3.93,0A6.57,6.57,0,0,0,19.53,56Z" id="path453839-2-4"/><path class="cls-2" d="M21.09,12.29l-.45-.08a4,4,0,0,1-2.93-2.35,1.1,1.1,0,0,0-2.07.14l-.56,2.06a4.63,4.63,0,0,0,1.34,4.64l.91.83,4.12-.93Z" id="path172370-1"/><path class="cls-2" d="M43,12.29l.44-.08a4,4,0,0,0,2.94-2.35,1.1,1.1,0,0,1,2.07.14L49,12.06a4.65,4.65,0,0,1-1.35,4.64l-.91.83-3.92-.7Z" id="path172366-5"/><path class="cls-3" d="M37.26,40.05a25.79,25.79,0,0,0,8.42-1.39,4.31,4.31,0,0,0,2.5-3.81V24.13a16.14,16.14,0,0,0-32.27,0V34.85a4.31,4.31,0,0,0,2.5,3.81,25.84,25.84,0,0,0,8.42,1.39Z" id="path242812-0-4"/><path class="cls-4" d="M26.83,40.05v2a9.25,9.25,0,0,0,10.34,0v-2Z" id="path207743"/><path class="cls-1" d="M45,25.46a33.86,33.86,0,0,1-9.52-4.71c-4.24,2.95-10,5.76-16.45,5.76a19.53,19.53,0,0,0,1,4.92c2.16,5.41,6.68,10.2,11.92,10.2s9.76-4.79,11.92-10.2A22.05,22.05,0,0,0,45,25.46Z" id="path238266-2-7"/><path class="cls-5" d="M23.64,30.83a.54.54,0,0,0-.47.72s2.89,6.84,8.88,6.84,8.88-6.84,8.88-6.84a.55.55,0,0,0-.4-.72.54.54,0,0,0-.44.15A11.38,11.38,0,0,1,24,31,.51.51,0,0,0,23.64,30.83Z" id="path52715-9"/><path class="cls-4" d="M29,44.67a1,1,0,0,0-.66,1.25L29,48.05a1,1,0,1,0,1.91-.58l-.64-2.13A1,1,0,0,0,29,44.67Z" id="path251605-8"/><path class="cls-4" d="M35,44.67a1,1,0,0,0-1.25.67l-.64,2.13a1,1,0,1,0,1.91.58l.64-2.13A1,1,0,0,0,35,44.67Z" id="path251687-7"/></g></svg>